<?xml version="1.0" encoding="UTF-8"?>
<svg id="Layer_2" data-name="Layer 2" xmlns="http://www.w3.org/2000/svg" viewBox="0 0 1920 1080">
  <defs>
    <style>
      .cls-1 {
        fill: #b7dc9e;
      }

      .cls-2 {
        fill: #489035;
      }

      .cls-3 {
        fill: #e4f0c2;
      }

      .cls-4 {
        fill: #539134;
      }

      .cls-5 {
        fill: #5da932;
      }

      .cls-6 {
        fill: #a7d593;
      }

      .cls-7 {
        fill: #73af48;
      }

      .cls-8 {
        fill: #3a8736;
      }

      .cls-9 {
        fill: #afd66b;
      }

      .cls-10 {
        fill: #62a132;
      }

      .cls-11 {
        fill: #70bc2b;
      }

      .cls-12 {
        fill: #509134;
      }

      .cls-13 {
        fill: #97cb38;
      }

      .cls-14 {
        fill: #5dae5b;
      }

      .cls-15 {
        fill: #57b032;
      }

      .cls-16 {
        fill: #348736;
      }

      .cls-17 {
        fill: #8dc786;
      }

      .cls-18 {
        fill: #44a135;
      }

      .cls-19 {
        fill: #4a9c35;
      }

      .cls-20 {
        fill: #7cc276;
      }

      .cls-21 {
        fill: #1b5d2e;
      }

      .cls-22 {
        fill: #69a131;
      }

      .cls-23 {
        fill: #96cb5a;
      }

      .cls-24 {
        fill: #c8e295;
      }

      .cls-25 {
        fill: #6a9a30;
      }

      .cls-26 {
        fill: #86c155;
      }

      .cls-27 {
        fill: #cae396;
      }

      .cls-28 {
        fill: #5caf5b;
      }

      .cls-29 {
        fill: #c2df88;
      }

      .cls-30 {
        fill: #b1d994;
      }

      .cls-31 {
        fill: #2e7333;
      }

      .cls-32 {
        fill: #5ba233;
      }

      .cls-33 {
        fill: #61b030;
      }

      .cls-34 {
        fill: #2f7333;
      }

      .cls-35 {
        fill: #e2efcb;
      }

      .cls-36 {
        fill: #7cc163;
      }

      .cls-37 {
        fill: #548b34;
      }

      .cls-38 {
        fill: #236a31;
      }

      .cls-39 {
        fill: #5da832;
      }

      .cls-40 {
        fill: #418735;
      }

      .cls-41 {
        fill: #79bf3d;
      }

      .cls-42 {
        fill: #64b43f;
      }

      .cls-43 {
        fill: #d1e8c2;
      }

      .cls-44 {
        fill: #99cd66;
      }

      .cls-45 {
        fill: #3c7f35;
      }

      .cls-46 {
        fill: #a0d18b;
      }

      .cls-47 {
        fill: #bede8e;
      }

      .cls-48 {
        fill: #579c33;
      }

      .cls-49 {
        fill: #9ecf68;
      }

      .cls-50 {
        fill: #a9d47c;
      }

      .cls-51 {
        fill: #5cac50;
      }

      .cls-52 {
        fill: #73ab2e;
      }

      .cls-53 {
        fill: #c1e0a4;
      }

      .cls-54 {
        fill: #347834;
      }
    </style>
  </defs>
  <g id="Layer_1-2" data-name="Layer 1">
    <g id="Layer_2-2" data-name="Layer_2">
      <g id="_132346768" data-name=" 132346768">
        <polygon id="_132439720" data-name=" 132439720" class="cls-13" points="771.43 225.95 385.72 343.48 617.15 555.04 771.43 225.95"/>
        <polygon id="_132439648" data-name=" 132439648" class="cls-15" points="1920 641.22 1920 131.93 1761.43 308.22 1920 641.22"/>
        <polygon id="_132439456" data-name=" 132439456" class="cls-48" points="0 652.97 0 1080 124.29 946.8 0 652.97"/>
        <polygon id="_132439528" data-name=" 132439528" class="cls-8" points="1920 1080 1920 641.22 1765.72 856.7 1920 1080"/>
        <polygon id="_132439432" data-name=" 132439432" class="cls-19" points="1765.71 856.7 1920 641.22 1564.29 586.38 1765.71 856.7"/>
        <polygon id="_132439312" data-name=" 132439312" class="cls-18" points="1564.29 586.38 1920 641.22 1761.43 308.22 1564.29 586.38"/>
        <polygon id="_132439264" data-name=" 132439264" class="cls-1" points="1617.47 0 1581.43 116.26 1920 131.93 1780.19 0 1617.47 0"/>
        <polygon id="_132439408" data-name=" 132439408" class="cls-33" points="132.86 296.47 0 652.97 287.14 660.81 132.86 296.47"/>
        <polygon id="_132439984" data-name=" 132439984" class="cls-11" points="19.89 0 0 0 0 652.97 132.86 296.47 19.89 0"/>
        <polygon id="_132439960" data-name=" 132439960" class="cls-22" points="287.14 660.81 282.86 907.63 411.43 762.67 287.14 660.81"/>
        <polygon id="_132439576" data-name=" 132439576" class="cls-39" points="287.14 660.81 0 652.97 124.29 946.8 287.14 660.81"/>
        <polygon id="_132439816" data-name=" 132439816" class="cls-10" points="124.29 946.8 282.86 907.63 287.14 660.81 124.29 946.8"/>
        <polygon id="_132439888" data-name=" 132439888" class="cls-52" points="411.43 762.67 608.57 837.11 617.14 555.04 411.43 762.67"/>
        <polygon id="_132439552" data-name=" 132439552" class="cls-9" points="771.43 225.95 474.81 0 460.87 0 385.72 343.48 771.43 225.95"/>
        <polygon id="_132438808" data-name=" 132438808" class="cls-46" points="1761.43 308.22 1920 131.93 1581.43 116.26 1761.43 308.22"/>
        <polygon id="_132438760" data-name=" 132438760" class="cls-41" points="132.86 296.47 287.14 660.81 385.72 343.48 132.86 296.47"/>
        <polygon id="_132438496" data-name=" 132438496" class="cls-12" points="124.29 946.8 445.72 1080 282.86 907.63 124.29 946.8"/>
        <polygon id="_132438568" data-name=" 132438568" class="cls-4" points="0 1080 445.72 1080 124.29 946.8 0 1080"/>
        <polygon id="_132439144" data-name=" 132439144" class="cls-23" points="385.72 343.48 460.87 0 453.02 0 132.86 296.47 385.72 343.48"/>
        <polygon id="_132439072" data-name=" 132439072" class="cls-49" points="453.02 0 19.89 0 132.86 296.47 453.02 0"/>
        <polygon id="_132439120" data-name=" 132439120" class="cls-38" points="865.72 989.9 1255.71 1080 908.58 766.59 865.72 989.9"/>
        <polygon id="_132439048" data-name=" 132439048" class="cls-37" points="282.86 907.63 445.72 1080 608.57 837.11 282.86 907.63"/>
        <polygon id="_132438832" data-name=" 132438832" class="cls-25" points="282.86 907.63 608.57 837.11 411.43 762.67 282.86 907.63"/>
        <polygon id="_132439096" data-name=" 132439096" class="cls-26" points="385.72 343.48 287.15 660.81 617.15 555.04 385.72 343.48"/>
        <polygon id="_132438688" data-name=" 132438688" class="cls-7" points="617.14 555.04 287.14 660.81 411.43 762.67 617.14 555.04"/>
        <polygon id="_132438976" data-name=" 132438976" class="cls-24" points="758.3 0 474.82 0 771.43 225.95 758.3 0"/>
        <polygon id="_132439168" data-name=" 132439168" class="cls-16" points="908.58 766.59 1255.72 1080 1332.86 750.92 908.58 766.59"/>
        <polygon id="_132438904" data-name=" 132438904" class="cls-54" points="608.57 837.11 445.72 1080 865.72 989.9 608.57 837.11"/>
        <polygon id="_132438664" data-name=" 132438664" class="cls-8" points="865.72 989.9 908.58 766.59 608.57 837.11 865.72 989.9"/>
        <polygon id="_132438856" data-name=" 132438856" class="cls-5" points="608.57 837.11 908.58 766.59 617.15 555.04 608.57 837.11"/>
        <polygon id="_132348112" data-name=" 132348112" class="cls-17" points="1242.86 547.2 1422.86 366.99 1152.86 308.22 1242.86 547.2"/>
        <polygon id="_132348064" data-name=" 132348064" class="cls-27" points="920.67 0 758.3 0 771.43 225.95 920.67 0"/>
        <polygon id="_132348232" data-name=" 132348232" class="cls-36" points="617.14 555.04 908.58 766.59 1152.86 308.22 617.14 555.04"/>
        <polygon id="_132348184" data-name=" 132348184" class="cls-44" points="1152.86 308.22 771.43 225.95 617.14 555.04 1152.86 308.22"/>
        <polygon id="_132347680" data-name=" 132347680" class="cls-30" points="1422.86 366.99 1234.29 92.75 1152.86 308.22 1422.86 366.99"/>
        <polygon id="_132347608" data-name=" 132347608" class="cls-50" points="1234.29 92.75 771.43 225.95 1152.86 308.22 1234.29 92.75"/>
        <polygon id="_132347848" data-name=" 132347848" class="cls-29" points="1234.29 92.75 1172.28 0 920.67 0 771.43 225.95 1234.29 92.75"/>
        <polygon id="_132347464" data-name=" 132347464" class="cls-20" points="1152.86 308.22 908.58 766.59 1242.86 547.2 1152.86 308.22"/>
        <polygon id="_132347728" data-name=" 132347728" class="cls-21" points="445.72 1080 1255.71 1080 865.72 989.9 445.72 1080"/>
        <polygon id="_132347368" data-name=" 132347368" class="cls-28" points="908.58 766.59 1332.86 750.92 1242.86 547.2 908.58 766.59"/>
        <polygon id="_132348016" data-name=" 132348016" class="cls-47" points="1920 131.93 1920 0 1780.19 0 1920 131.93"/>
        <polygon id="_132347968" data-name=" 132347968" class="cls-34" points="1255.71 1080 1920 1080 1671.43 1025.16 1255.71 1080"/>
        <polygon id="_132347920" data-name=" 132347920" class="cls-3" points="1292.27 0 1172.28 0 1234.29 92.75 1292.27 0"/>
        <polygon id="_132347752" data-name=" 132347752" class="cls-14" points="1242.86 547.2 1564.29 586.38 1422.86 366.99 1242.86 547.2"/>
        <polygon id="_132347440" data-name=" 132347440" class="cls-2" points="1332.86 750.92 1255.71 1080 1482.86 923.29 1332.86 750.92"/>
        <polygon id="_132348040" data-name=" 132348040" class="cls-31" points="1671.43 1025.16 1920 1080 1765.71 856.7 1671.43 1025.16"/>
        <polygon id="_132347800" data-name=" 132347800" class="cls-39" points="1482.86 923.29 1564.29 586.38 1332.86 750.92 1482.86 923.29"/>
        <polygon id="_132347704" data-name=" 132347704" class="cls-40" points="1671.43 1025.16 1765.71 856.7 1482.86 923.29 1671.43 1025.16"/>
        <polygon id="_132347488" data-name=" 132347488" class="cls-51" points="1332.86 750.92 1564.29 586.38 1242.86 547.2 1332.86 750.92"/>
        <polygon id="_132347416" data-name=" 132347416" class="cls-53" points="1422.86 366.99 1581.43 116.26 1234.29 92.75 1422.86 366.99"/>
        <polygon id="_132346936" data-name=" 132346936" class="cls-35" points="1418.43 0 1292.27 0 1234.29 92.75 1418.43 0"/>
        <polygon id="_132346840" data-name=" 132346840" class="cls-43" points="1581.43 116.26 1617.47 0 1418.43 0 1234.29 92.75 1581.43 116.26"/>
        <polygon id="_132346816" data-name=" 132346816" class="cls-32" points="1765.71 856.7 1564.29 586.38 1482.86 923.29 1765.71 856.7"/>
        <polygon id="_132346600" data-name=" 132346600" class="cls-45" points="1482.86 923.29 1255.71 1080 1671.43 1025.16 1482.86 923.29"/>
        <polygon id="_132347152" data-name=" 132347152" class="cls-42" points="1564.29 586.38 1761.43 308.22 1422.86 366.99 1564.29 586.38"/>
        <polygon id="_132347080" data-name=" 132347080" class="cls-6" points="1761.43 308.22 1581.43 116.26 1422.86 366.99 1761.43 308.22"/>
      </g>
    </g>
  </g>
</svg>