<?xml version="1.0" encoding="UTF-8"?>
<svg id="Layer_2" data-name="Layer 2" xmlns="http://www.w3.org/2000/svg" viewBox="0 0 333.35 479.39">
  <defs>
    <style>
      .cls-1 {
        fill: #002771;
      }

      .cls-2, .cls-3, .cls-4, .cls-5 {
        fill: none;
        stroke: #001a74;
        stroke-width: 2.38px;
      }

      .cls-2, .cls-4 {
        stroke-miterlimit: 10;
      }

      .cls-2, .cls-5 {
        stroke-linecap: round;
      }

      .cls-6 {
        fill: #087508;
      }

      .cls-3, .cls-5 {
        stroke-linejoin: round;
      }

      .cls-7 {
        fill: #15a015;
      }

      .cls-8 {
        fill: #007ce9;
      }

      .cls-9 {
        fill: #00287f;
      }

      .cls-10 {
        fill: #ffcb19;
      }

      .cls-11 {
        fill: #ec3700;
      }
    </style>
  </defs>
  <g id="Layer_1-2" data-name="Layer 1">
    <g>
      <g>
        <circle class="cls-7" cx="95.18" cy="252.13" r="5.02"/>
        <circle class="cls-7" cx="118.58" cy="231.36" r="8.6"/>
        <circle class="cls-7" cx="148.34" cy="207.69" r="11.54"/>
        <g>
          <g>
            <path class="cls-11" d="M171.16,0s-12.51,44.04-39.28,84.77c-13.66,20.78-73.81,92.21-80.63,100.69,0,0-27.5,32.41-34.11,59.13-6.89,27.82-9.1,46.73,0,76.08,0,0,12.2,26.26,16.13,31.22,0,0-9.51-36.39-.83-68.02,8.68-31.63,40.32-65.75,40.32-65.75l59.34-70.09s26.4-35.37,36.18-61.82c8.18-22.12,7.03-27.5,8.06-43.83S171.16,0,171.16,0Z"/>
            <path class="cls-10" d="M248.11,411.8c-28.44,21.03-72.83,31.34-120.68,24.84C50.41,426.18-6.39,376.11,.58,324.83c.09-.62,.17-1.24,.28-1.85,12.21,43.35,72.95,82.51,150.27,93.01,35.24,4.79,68.75,2.92,96.99-4.18Z"/>
            <path class="cls-8" d="M333.35,361.55c0,65.08-73.29,117.84-163.69,117.84-77.04,0-141.66-38.32-159.07-89.93,27.9,36.31,81.63,60.89,143.34,60.89,90.41,0,163.7-52.76,163.7-117.85,0-9.61-1.6-18.95-4.61-27.89,12.96,16.88,20.34,36.29,20.34,56.94Z"/>
            <g>
              <polygon class="cls-1" points="93.77 268.62 93.77 324.95 92.03 331.49 84.06 331.49 84.06 268.62 93.77 268.62"/>
              <polygon class="cls-1" points="92.03 331.49 89.43 341.2 71.11 341.2 71.11 331.49 92.03 331.49"/>
              <polygon class="cls-1" points="101.39 331.49 99.78 341.2 91.9 341.2 94.49 331.49 101.39 331.49"/>
              <polygon class="cls-1" points="114.57 331.49 113.82 341.2 102.19 341.2 103.8 331.49 114.57 331.49"/>
              <polygon class="cls-1" points="131.79 341.2 116.2 341.2 116.96 331.49 131.01 331.49 131.79 341.2"/>
              <polygon class="cls-1" points="145.28 341.2 134.18 341.2 133.39 331.49 143.68 331.49 145.28 341.2"/>
              <polygon class="cls-1" points="153.13 331.49 155.73 341.2 147.69 341.2 146.09 331.49 153.13 331.49"/>
              <polygon class="cls-1" points="208.3 331.49 208.3 341.2 158.18 341.2 155.59 331.49 208.3 331.49"/>
              <polygon class="cls-1" points="148.34 359.75 135.68 359.75 134.41 344.03 145.75 344.03 148.34 359.75"/>
              <polygon class="cls-1" points="133.3 359.75 114.77 359.75 115.98 344.03 132.02 344.03 133.3 359.75"/>
              <polygon class="cls-1" points="113.6 344.03 112.38 359.75 99.12 359.75 101.71 344.03 113.6 344.03"/>
              <polygon class="cls-1" points="163.8 371.69 166.33 371.69 158.94 344.03 208.3 344.03 208.3 374.79 71.11 374.79 71.11 344.03 88.68 344.03 81.28 371.69 83.74 371.69 91.13 344.03 99.31 344.03 96.71 359.75 87.18 359.75 86.51 362.31 96.28 362.31 94.76 371.49 94.72 371.69 97.13 371.69 98.69 362.31 112.19 362.31 111.47 371.6 111.45 371.78 113.84 371.78 114.57 362.31 133.5 362.31 134.26 371.69 135.46 371.69 136.65 371.69 135.89 362.31 148.76 362.31 150.31 371.69 151.49 371.69 152.72 371.69 151.17 362.31 161.36 362.31 163.8 371.69"/>
              <polygon class="cls-1" points="160.68 359.75 150.75 359.75 148.16 344.03 156.48 344.03 160.68 359.75"/>
              <path class="cls-1" d="M106.84,313.1l-2.34,14.1h10.4l1.09-14.1h-9.15Zm0,0l-2.34,14.1h10.4l1.09-14.1h-9.15Zm41.33,0h-5.11l2.32,14.1h6.55l-3.76-14.1Zm2.13,58.59l-1.55-9.38h-12.87l.76,9.38h13.66Zm-4.56-27.66h-11.34l1.28,15.72h12.66l-2.59-15.72Zm-2.07-12.55l-.27-1.64h-10.15l.13,1.64,.78,9.72h11.1l-1.6-9.72Zm-12.67,0l-.13-1.64h-13.79l-.13,1.64-.75,9.72h15.59l-.78-9.72Zm1.01,12.55h-16.04l-1.21,15.72h18.53l-1.28-15.72Zm-37.01-14.19l-.43,1.64-2.54,9.72h7.74l1.61-9.72,.27-1.64h-6.65Zm-3.72,14.19l-4.11,15.72h9.53l2.6-15.72h-8.01Zm4.99,18.28h-9.76l-2.46,9.38h10.67l1.55-9.38Zm5.44-18.28l-2.6,15.72h13.27l1.21-15.72h-11.88Zm2.35-14.19l-.27,1.64-1.61,9.72h11.63l.75-9.72,.13-1.64h-10.63Zm29.44,32.46h-18.93l-.72,9.38h20.42l-.76-9.38Zm-22.03,9.29l.72-9.29h-13.5l-1.55,9.38,14.31,.09,.02-.18Zm52.33,.1l-2.5-9.38h-10.13l1.55,9.38h11.09Zm-10.72-40.21l-.44-1.64h-6.82l.27,1.64,1.6,9.72h7.98l-2.59-9.72Zm3.34,12.55h-8.27l2.59,15.72h9.87l-4.19-15.72Zm-15.77-30.93h-8.75l1.14,14.1h9.93l-2.32-14.1Zm-11.14,0h-11.14l-1.09,14.1h13.38l-1.14-14.1Zm-22.67,0l-2.34,14.1h10.4l1.09-14.1h-9.15Zm-7.45,0l-.56,2.16-3.13,11.94h6.4l2.34-14.1h-5.04Zm7.45,0l-2.34,14.1h10.4l1.09-14.1h-9.15Zm2.16-13.05l-.03,.2-1.69,10.17h8.91l.8-10.37h-7.99Zm35.69,0h-3.78l1.7,10.37h4.84l-2.77-10.37Zm-16.22,.1v-.1h-9.08l-.02,.1-.79,10.27h10.72l-.83-10.26Zm10.07,.1l-.05-.29-7.64,.1,.84,10.37h8.52l-1.67-10.17Zm-35.73-.2l-2.71,10.37h4.78l1.72-10.37h-3.79Z"/>
              <polygon class="cls-1" points="97.13 371.69 97.1 371.88 95.95 371.69 97.13 371.69"/>
              <polygon class="cls-1" points="135.46 371.69 134.27 371.79 134.26 371.69 135.46 371.69"/>
              <polygon class="cls-1" points="151.49 371.69 150.34 371.88 150.31 371.69 151.49 371.69"/>
            </g>
            <path class="cls-9" d="M287.34,369.54c-18.28,13.16-63.04,22.46-115.37,22.46s-97.08-9.3-115.36-22.46h230.73Z"/>
            <path class="cls-9" d="M217.25,289.53v82.16h55.2v-82.16h-55.2Zm10.23,7.75h10.7v9.46h-10.7v-9.46Zm.47,15.81h10.7v9.46h-10.7v-9.46Zm.47,15.82h10.7v9.46h-10.7v-9.46Zm11.16,25.27h-10.7v-9.46h10.7v9.46Zm6.36-56.9h17.52v9.46h-17.52v-9.46Zm.46,15.81h17.52v9.46h-17.52v-9.46Zm.47,15.82h17.52v9.46h-17.52v-9.46Zm17.98,25.27h-17.52v-9.46h17.52v9.46Z"/>
            <g>
              <polyline class="cls-4" points="164.74 333.64 171.15 234.12 176.23 234.12 182.64 333.64"/>
              <path class="cls-4" d="M165.22,326.09l14.93-16.79c.48-.55,.47-1.37-.04-1.9l-12.83-13.29,11.8-15.74-9.97-12.62,8.28-13.62"/>
              <polyline class="cls-5" points="177.27 250.35 189 256.76 204.31 265.13 173.69 265.13 143.06 265.13 158.37 256.76 169.74 250.55"/>
              <polyline class="cls-3" points="179.02 277.43 193.1 283.88 212.51 292.77 173.69 292.77 134.86 292.77 154.28 283.88 168.36 277.43"/>
            </g>
            <line class="cls-2" x1="178.64" y1="251.09" x2="245.94" y2="227.82"/>
            <line class="cls-2" x1="197.49" y1="261.4" x2="263.46" y2="238.05"/>
            <line class="cls-2" x1="182.64" y1="279.09" x2="274.62" y2="246.42"/>
            <line class="cls-2" x1="204.52" y1="289.11" x2="287.34" y2="259.45"/>
          </g>
          <path class="cls-8" d="M331.58,319.28c.03-24.92-7-40.66-13.06-50.19-16.73-26.34-54.79-50.7-68.85-66.93-2.31-2.67-9.68-11.71-6.33-30.34h0c.29-1.39,.98-4.41,2.71-8.55,4.91-11.74,13.69-21.78,18.58-26.92,.56,2.5,1.46,6.24,2.79,10.72,7.67,25.89,18.69,39.74,31.78,61.5,12.83,21.32,19.77,32.87,25.25,49.72,7.4,22.75,8.16,42.91,7.61,56.37l-.49,4.63Z"/>
        </g>
      </g>
      <g>
        <path class="cls-6" d="M232.54,154.31c-8.79,19.16-26.35,30.35-50.98,25.09-1.58,3.17-3.29,6.31-5.14,9.44-.01,.01-.03,.04-.04,.06-1.86,3.63-3.58,6.5-4.35,6.49-2.05-.06-2.9-.37-4.28-2.76-1.37-2.43,1.54-1.76,3.92-3.76,1.19-1,3.82-4.82,6.15-8.39,0,0,.01-.02,.02-.03,.31-.57,.61-1.14,.9-1.72,.31-.58,.6-1.17,.89-1.76,.27-.54,.53-1.07,.79-1.61,.28-.57,.55-1.13,.83-1.7h0s2.64-5.86,2.64-5.86l.08-.18c.69-1.61,1.35-3.24,1.98-4.88l2.23-6.11,.43-1.28c1.76-5.28,3.26-10.66,4.53-16.13l.06-.26,1.51-7.14,.04-.2c.81-4.33,1.5-8.71,2.05-13.17v-.06s.27-2.2,.27-2.2l.04-.37c.63-5.57,1.07-11.24,1.33-17.02l.24-7.11v-.13c.11-5.02,.1-10.12-.02-15.3-.22-9.92-2.48-25.77-3.04-27.47,0-.01,0-.02,0-.03h0c13.53,28.91,53.81,67.42,36.92,105.55Z"/>
        <path class="cls-6" d="M195.62,48.75h0s-.02-.03-.03-.05c.01,.01,.02,.03,.03,.05Z"/>
        <path class="cls-6" d="M197.8,76.68c-.24,2.52-.3,12.2-1.2,24.34,0-.01-.01-.03-.02-.04-2.98-7.01-5.44-13.83-7.97-20.05h0c.05,.29,.11,.57,.17,.86,1.51,5.66,4.96,14.45,7.66,21.26,0,.01,0,.03,.01,.04-.5,6.17-1.23,12.89-2.3,19.58-.01-.03-.02-.06-.03-.08-3.29-8.37-9-20.85-11.41-26.99,.03,.26,.08,.51,.13,.78,0,.03,0,.06,.01,.08,1.42,5.49,8.03,19.98,10.96,28.01h0s.01,.04,.02,.05c-.06,.42-.13,.83-.21,1.25-1.21,6.77-2.87,13.88-5.08,20.94-.01-.04-.03-.08-.04-.11-3.38-9.34-14.28-28.6-16.69-34.88,.04,.26,.08,.51,.11,.76,0,.03,0,.06,.01,.08,1.41,5.5,13.13,26.82,16.06,35.63,.01,.03,.02,.04,.03,.06,0,.01,0,.03,.01,.04-1.28,3.98-2.75,7.95-4.41,11.82-1.14,2.67-2.36,5.3-3.64,7.91,0-.02-.01-.04-.01-.06,0-.02-.01-.04-.02-.06-2-8.49-13.49-28.05-15.56-34.93,.03,.28,.04,.56,.07,.83,.01,.08,.03,.15,.04,.24,1.3,6.27,12.97,28.52,14.38,36.02,0,.02,.01,.04,.01,.06,0,.03,0,.04,.01,.06-1.25,2.49-2.53,4.95-3.85,7.35-10.04-9.22-14.66-19.19-15.84-28.9-.13-1.05-.22-2.09-.27-3.14-.51-10.72,2.94-20.98,7.62-29.37,19.53-35.13,27.61-49.08,25.01-79.89,.51,3.92,1.95,8.1,4,12.5,.04,.13,.11,.55,.2,1.22,.54,4.25,1.74,17.53,1.99,23.79,.06,1.39,.07,2.43,.02,2.98Z"/>
        <path class="cls-7" d="M197.8,74.31c0-.19-.01-.39-.02-.6-.25-6.25-1.45-19.54-1.99-23.79-.03-.25-.06-.46-.09-.65-.03-.2-.05-.36-.08-.48,0-.01,0-.02,0-.03h0c-.01-.07-.02-.11-.03-.14l-4-12.5c2.59,30.81-5.47,44.76-25.01,79.89-4.68,8.42-8.15,18.71-7.61,29.45,.05,1.05,.14,2.09,.27,3.14,.04,.31,.08,.6,.12,.91,.09,.6,.19,1.21,.31,1.82,.06,.31,.13,.62,.18,.92,1.83,8.52,6.46,17.13,15.22,25.17,.81-1.48,1.61-2.97,2.39-4.49,.04-.06,.06-.11,.1-.17l.11-.22c.43-.81,.85-1.63,1.26-2.46t0,0h0s0-.04-.01-.07c-1.33-7.25-12.54-28.74-14.3-35.61-.04-.14-.07-.27-.1-.39-.02-.08-.03-.16-.04-.24,0-.02,0-.04-.01-.06-.03-.26-.04-.51-.06-.78,0-.03,0-.05,0-.08,2.08,6.9,13.62,26.54,15.58,34.99h0s0,.04,.01,.06c.44-.9,.88-1.81,1.3-2.73,.81-1.72,1.58-3.44,2.33-5.18,1.3-3.04,2.49-6.14,3.57-9.26l.04-.12c.27-.8,.55-1.6,.81-2.4,0-.01,0-.02,0-.03,0-.02-.01-.04-.02-.06-2.9-8.78-14.67-30.17-16.08-35.68-.04-.25-.08-.5-.11-.76,0-.03,0-.06-.01-.08,2.42,6.3,13.35,25.61,16.71,34.94,.01,.02,.02,.04,.03,.06,.29-.91,.55-1.81,.82-2.72l.05-.17c1.79-6.11,3.17-12.21,4.21-18.06l.2-1.21h0s0-.04,0-.04c-2.94-8.03-9.56-22.55-10.98-28.05-.06-.26-.1-.51-.13-.78,0-.03,0-.06-.01-.08,2.42,6.15,8.14,18.67,11.43,27.04,0,.01,0,.03,.01,.04,.14-.86,.27-1.72,.39-2.58,.81-5.5,1.4-10.98,1.84-16.11h0c.01-.24,.04-.46,.06-.69v-.16s.01-.04,.01-.04c-2.7-6.81-6.15-15.62-7.67-21.29-.05-.26-.11-.52-.16-.78h0s0-.05-.01-.08c2.55,6.22,5.01,13.06,7.99,20.09h0s0,.01,0,.01c.06-.76,.11-1.51,.16-2.25l.11-1.56h0c.65-10.33,.73-18.29,.94-20.54,.04-.45,.04-1.25,0-2.3Z"/>
        <polygon class="cls-7" points="177.45 172.95 181.29 165.2 167.63 129.98 162.53 133.28 177.45 172.95"/>
        <polygon class="cls-7" points="187.18 150.75 189.41 143.72 172.23 110.46 170.04 114.11 187.18 150.75"/>
        <polygon class="cls-7" points="193.61 125.66 194.53 119.99 184.38 92.45 181.22 94.88 193.61 125.66"/>
        <polygon class="cls-7" points="196.37 103.9 196.85 97.15 189.94 78.88 186.21 82.24 196.37 103.9"/>
      </g>
    </g>
  </g>
</svg>